<?xml version="1.0" encoding="UTF-8"?>
<svg width="233px" height="90px" viewBox="0 0 233 90" version="1.1" xmlns="http://www.w3.org/2000/svg" xmlns:xlink="http://www.w3.org/1999/xlink">
    <!-- Generator: Sketch 45.2 (43514) - http://www.bohemiancoding.com/sketch -->
    <title>Hydro Logo@1x</title>
    <desc>Created with Sketch.</desc>
    <defs></defs>
    <g id="Page-1" stroke="none" stroke-width="1" fill="none" fill-rule="evenodd">
        <g id="Artboard" transform="translate(-213.000000, -472.000000)" fill="#378FFB">
            <g id="Hydro-Logo" transform="translate(213.000000, 472.000000)">
                <path d="M24.35,23.58 C27.1700141,23.58 29.58499,24.0749951 31.595,25.065 C33.60501,26.055005 35.2549935,27.3599919 36.545,28.98 C37.8350064,30.6000081 38.779997,32.4599895 39.38,34.56 C39.980003,36.6600105 40.28,38.8199889 40.28,41.04 L40.28,68.04 L29.48,68.04 L29.48,44.28 C29.48,43.0199937 29.3900009,41.7150068 29.21,40.365 C29.0299991,39.0149933 28.6550028,37.7850056 28.085,36.675 C27.5149971,35.5649944 26.7050052,34.6500036 25.655,33.93 C24.6049947,33.2099964 23.2100087,32.85 21.47,32.85 C19.7299913,32.85 18.2300063,33.1799967 16.97,33.84 C15.7099937,34.5000033 14.6600042,35.3849944 13.82,36.495 C12.9799958,37.6050056 12.3500021,38.8499931 11.93,40.23 C11.5099979,41.6100069 11.3,43.0199928 11.3,44.46 L11.3,68.04 L0.5,68.04 L0.5,0 L11.3,0 L11.3,30.87 L11.48,30.87 C11.9000021,29.9699955 12.514996,29.0850044 13.325,28.215 C14.135004,27.3449957 15.0799946,26.5650034 16.16,25.875 C17.2400054,25.1849965 18.4699931,24.6300021 19.85,24.21 C21.2300069,23.7899979 22.7299919,23.58 24.35,23.58 Z M46.4,24.84 L58.37,24.84 L70.43,56.25 L70.61,56.25 L81.32,24.84 L92.57,24.84 L72.14,77.31 C71.3599961,79.2900099 70.5200045,81.0449924 69.62,82.575 C68.7199955,84.1050076 67.6400063,85.3949947 66.38,86.445 C65.1199937,87.4950053 63.6350085,88.2899973 61.925,88.83 C60.2149914,89.3700027 58.160012,89.64 55.76,89.64 C54.8599955,89.64 53.9450046,89.5950004 53.015,89.505 C52.0849953,89.4149995 51.1400048,89.2500012 50.18,89.01 L51.08,79.65 C51.8000036,79.8900012 52.5049966,80.0549996 53.195,80.145 C53.8850034,80.2350005 54.529997,80.28 55.13,80.28 C56.2700057,80.28 57.2299961,80.1450014 58.01,79.875 C58.7900039,79.6049987 59.4499973,79.1850029 59.99,78.615 C60.5300027,78.0449972 61.0099979,77.3400042 61.43,76.5 C61.8500021,75.6599958 62.2999976,74.6700057 62.78,73.53 L64.94,68.04 L46.4,24.84 Z M142.97,68.04 L132.71,68.04 L132.71,61.56 L132.53,61.56 C131.029992,64.0800126 128.945013,65.9999934 126.275,67.32 C123.604987,68.6400066 120.740015,69.3 117.68,69.3 C114.379983,69.3 111.425013,68.6850061 108.815,67.455 C106.204987,66.2249938 103.985009,64.5750104 102.155,62.505 C100.324991,60.4349896 98.9150049,58.0050139 97.925,55.215 C96.934995,52.4249861 96.44,49.4400159 96.44,46.26 C96.44,43.0799841 96.9499949,40.1100138 97.97,37.35 C98.9900051,34.5899862 100.429991,32.1900102 102.29,30.15 C104.150009,28.1099898 106.369987,26.5050059 108.95,25.335 C111.530013,24.1649942 114.349985,23.58 117.41,23.58 C119.39001,23.58 121.159992,23.8049978 122.72,24.255 C124.280008,24.7050022 125.644994,25.2599967 126.815,25.92 C127.985006,26.5800033 128.989996,27.2999961 129.83,28.08 C130.670004,28.8600039 131.359997,29.6099964 131.9,30.33 L132.17,30.33 L132.17,0 L142.97,0 L142.97,68.04 Z M107.42,46.26 C107.42,47.9400084 107.674997,49.6199916 108.185,51.3 C108.695003,52.9800084 109.459995,54.4799934 110.48,55.8 C111.500005,57.1200066 112.789992,58.1999958 114.35,59.04 C115.910008,59.8800042 117.739989,60.3 119.84,60.3 C121.82001,60.3 123.589992,59.8950041 125.15,59.085 C126.710008,58.274996 128.044994,57.2100066 129.155,55.89 C130.265006,54.5699934 131.104997,53.0850082 131.675,51.435 C132.245003,49.7849917 132.53,48.1200084 132.53,46.44 C132.53,44.7599916 132.245003,43.0800084 131.675,41.4 C131.104997,39.7199916 130.265006,38.2200066 129.155,36.9 C128.044994,35.5799934 126.710008,34.5000042 125.15,33.66 C123.589992,32.8199958 121.82001,32.4 119.84,32.4 C117.739989,32.4 115.910008,32.804996 114.35,33.615 C112.789992,34.4250041 111.500005,35.4899934 110.48,36.81 C109.459995,38.1300066 108.695003,39.6149917 108.185,41.265 C107.674997,42.9150082 107.42,44.5799916 107.42,46.26 Z M156.11,24.84 L166.46,24.84 L166.46,32.04 L166.64,32.04 C167.840006,29.5199874 169.519989,27.4800078 171.68,25.92 C173.840011,24.3599922 176.359986,23.58 179.24,23.58 C179.660002,23.58 180.109998,23.5949998 180.59,23.625 C181.070002,23.6550001 181.489998,23.7299994 181.85,23.85 L181.85,33.75 C181.129996,33.5699991 180.515003,33.4500003 180.005,33.39 C179.494997,33.3299997 179.000002,33.3 178.52,33.3 C176.059988,33.3 174.080007,33.7499955 172.58,34.65 C171.079992,35.5500045 169.910004,36.6299937 169.07,37.89 C168.229996,39.1500063 167.660002,40.4399934 167.36,41.76 C167.059999,43.0800066 166.91,44.1299961 166.91,44.91 L166.91,68.04 L156.11,68.04 L156.11,24.84 Z" id="hydr"></path>
                <path d="M209.5,70 C196.797451,70 186.5,59.7025492 186.5,47 C186.5,34.2974508 196.797451,24 209.5,24 C222.202549,24 232.5,34.2974508 232.5,47 C232.5,59.7025492 222.202549,70 209.5,70 Z M209.5,62 C215.851275,62 221,56.6025439 221,49.9444444 C221,46.2204773 218.301824,41.1759889 212.905473,34.8109792 C212.214968,33.9965267 211.07981,32.7262003 209.5,31 C207.835267,32.8213674 206.642165,34.160256 205.920695,35.0166656 C200.640232,41.2847546 198,46.2606809 198,49.9444444 C198,56.6025439 203.148725,62 209.5,62 Z" id="Combined-Shape"></path>
            </g>
        </g>
    </g>
</svg>